<?xml version="1.0" encoding="UTF-8" standalone="no"?>
<!-- Created with Inkscape (http://www.inkscape.org/) -->

<svg
   xmlns:dc="http://purl.org/dc/elements/1.1/"
   xmlns:cc="http://creativecommons.org/ns#"
   xmlns:rdf="http://www.w3.org/1999/02/22-rdf-syntax-ns#"
   xmlns:svg="http://www.w3.org/2000/svg"
   xmlns="http://www.w3.org/2000/svg"
   xmlns:sodipodi="http://sodipodi.sourceforge.net/DTD/sodipodi-0.dtd"
   xmlns:inkscape="http://www.inkscape.org/namespaces/inkscape"
   width="23.760107mm"
   height="5.0799999mm"
   viewBox="0 0 84.189356 18"
   id="svg2"
   version="1.1"
   inkscape:version="0.91 r13725"
   sodipodi:docname="logo2.svg">
  <defs
     id="defs4" />
  <sodipodi:namedview
     id="base"
     pagecolor="#ffffff"
     bordercolor="#666666"
     borderopacity="1.0"
     inkscape:pageopacity="0.0"
     inkscape:pageshadow="2"
     inkscape:zoom="0.35"
     inkscape:cx="-39.655"
     inkscape:cy="-328.22487"
     inkscape:document-units="px"
     inkscape:current-layer="layer1"
     showgrid="false"
     fit-margin-top="0"
     fit-margin-left="0"
     fit-margin-right="0"
     fit-margin-bottom="0"
     inkscape:window-width="1366"
     inkscape:window-height="705"
     inkscape:window-x="-8"
     inkscape:window-y="-8"
     inkscape:window-maximized="1" />
  <metadata
     id="metadata7">
    <rdf:RDF>
      <cc:Work
         rdf:about="">
        <dc:format>image/svg+xml</dc:format>
        <dc:type
           rdf:resource="http://purl.org/dc/dcmitype/StillImage" />
        <dc:title></dc:title>
      </cc:Work>
    </rdf:RDF>
  </metadata>
  <g
     inkscape:label="Layer 1"
     inkscape:groupmode="layer"
     id="layer1"
     transform="translate(86.773571,-186.13734)">
    <g
       transform="matrix(0.24006554,0,0,0.24006552,-100.1524,166.8752)"
       id="layer1-1">
      <g
         transform="translate(-62.857,-17.143)"
         id="layer1-08">
        <g
           transform="translate(-497.14,-497.14)"
           id="layer1-2">
          <g
             transform="translate(581.78,516.68)"
             id="layer1-0">
            <path
               d="m 40.84,77.84 c -2.2169,0 -4.0099,1.7974 -4.01,4.011 l 0,18.388 c -1.6684,0.54081 -2.8831,2.089 -2.8831,3.9393 l 0,9.6252 c 0,1.8509 1.2146,3.3964 2.8831,3.9372 l 0,27.495 c 0,1.2652 0.58696,2.3907 1.5015,3.126 0.6871,0.55232 1.5578,0.88503 2.5085,0.88503 l 39.436,0 c 0.90134,0 1.7298,-0.30074 2.3993,-0.80156 0.97696,-0.73148 1.6117,-1.8955 1.6117,-3.2094 l 0,-27.495 c 1.6684,-0.54026 2.8831,-2.0863 2.8831,-3.9372 l 0,-9.6252 c 0,-1.8504 -1.2146,-3.3985 -2.8831,-3.9393 l 0,-18.388 c 0,-2.2136 -1.7946,-4.011 -4.011,-4.011 l -39.436,0 z m 29.567,9.7868 c 1.1304,4.0624 5.3154,7.1519 10.438,7.4987 l 0,4.8939 -13.378,0 c -2.2964,0 -4.1587,1.8607 -4.1587,4.1587 l 0,3.0928 -5.5007,0 0,-3.0928 c 0,-2.298 -1.8607,-4.1587 -4.1576,-4.1587 l -13.378,0 0,-10.827 c 3.0783,2.7007 8.3472,4.483 14.337,4.483 7.0864,0 13.163,-2.4926 15.798,-6.0486 z m -32.302,15.718 15.545,0 c 0.45807,0 0.83153,0.3723 0.83153,0.83366 l 0,9.6252 c 0,0.46026 -0.37346,0.8326 -0.83153,0.8326 l -15.545,0 c -0.45917,0 -0.8326,-0.37234 -0.8326,-0.8326 l 0,-9.6252 c 0,-0.46135 0.37343,-0.83366 0.8326,-0.83366 z m 29.362,0 15.544,0 c 0.45917,0 0.8326,0.3723 0.8326,0.83366 l 0,9.6252 c 0,0.46026 -0.37343,0.8326 -0.8326,0.8326 l -15.544,0 c -0.45807,0 -0.83153,-0.37234 -0.83153,-0.8326 l 0,-9.6252 c 0,-0.46135 0.37346,-0.83366 0.83153,-0.83366 z m -9.6594,7.3682 5.5007,0 0,3.0907 c 0,2.2986 1.8618,4.1576 4.1587,4.1576 l 13.378,0 0,18.274 -40.574,0 0,-18.274 13.378,0 c 2.2969,0 4.1576,-1.8591 4.1576,-4.1576 l 0,-3.0907 z m 2.7504,28.366 c 2.2356,0 4.0485,1.8118 4.0485,4.0474 0,2.235 -1.8129,4.0485 -4.0485,4.0485 -2.2356,0 -4.0485,-1.8135 -4.0485,-4.0485 0,-2.2356 1.8129,-4.0474 4.0485,-4.0474 z"
               id="path3358"
               inkscape:connector-curvature="0"
               style="fill:#1c75bc" />
            <path
               d="m 62.288,113.77 0,-2.1364 -3.4836,0 0,2.1364 c 0,3.0617 -2.4441,5.5521 -5.4475,5.5521 l -12.803,0 0,17.1 39.985,0 0,-17.1 -12.803,0 c -3.004,0 -5.4487,-2.491 -5.4487,-5.5521 z m -3.4836,-10.21 0,2.1364 3.4836,0 0,-2.1364 c 0,-3.0617 2.4446,-5.5532 5.4487,-5.5532 l 12.803,0 0,-3.0169 c -4.554,-0.62362 -8.3575,-3.2204 -10.126,-6.8365 -3.4357,3.3308 -9.4815,5.4085 -16.059,5.4085 -5.2748,0 -10.252,-1.3298 -13.8,-3.6266 l 0,8.0721 12.803,0 c 3.0035,0 5.4475,2.4916 5.4475,5.5527 z m -14.532,2.6874 c 1.5226,-0.92235 3.3798,-1.8499 5.3951,-2.4288 l -11.368,0 c -0.47843,0 -0.8662,0.39462 -0.8662,0.88283 l 0,7.91 c 0.81261,-1.2873 1.7963,-2.47 2.9179,-3.5243 l -0.0017,-8.4e-4 c 0,0 0.01987,-0.0162 0.0239,-0.0202 1.1616,-1.088 2.4692,-2.0382 3.8993,-2.8182 z m 30.912,0 c 1.5225,-0.92235 3.3805,-1.8499 5.3951,-2.4288 l -11.367,0 c -0.47788,0 -0.86677,0.39462 -0.86677,0.88283 l 0,7.91 c 0.81203,-1.2873 1.7963,-2.47 2.9168,-3.5243 l -0.0012,-8.4e-4 c 0,0 0.01987,-0.0162 0.02445,-0.0202 1.161,-1.088 2.4692,-2.0382 3.8982,-2.8182 z"
               id="path3376"
               inkscape:connector-curvature="0"
               style="fill:#d7e8f7" />
            <path
               d="m 41.871,150.43 c -0.95066,0 -1.8224,-0.33205 -2.5095,-0.88437 -2.7681,0.33424 -4.384,0.73533 -4.384,1.1671 0,1.1622 11.743,2.1068 26.229,2.1068 14.485,0 26.229,-0.94463 26.229,-2.1068 0,-0.3967 -1.3632,-0.76711 -3.7303,-1.0844 -0.66957,0.50081 -1.4975,0.80163 -2.3988,0.80163 l -39.435,0 z"
               id="path3386"
               inkscape:connector-curvature="0"
               style="fill:#dcddde" />
            <g
               id="text3336"
               style="fill:#1c75bc">
              <path
                 d="m 123.48,79.644 0,18.151 -1.4451,0 q -0.98268,-7.3412 -4.7978,-11.214 -3.8151,-3.8729 -9.7112,-3.8729 -2.0232,0 -3.6995,0.69365 -1.6763,0.69365 -2.948,1.8497 -1.2717,1.0983 -1.9654,2.5434 -0.69365,1.4451 -0.69365,3.0058 0,1.4451 0.57804,2.7746 0.57804,1.2717 3.5839,4.0463 5.029,3.1792 8.9597,5.2602 3.6995,2.0232 10,6.1273 2.7168,2.081 4.1619,4.9712 1.4451,2.8324 1.4451,5.9539 0,2.948 -1.2139,5.607 -1.2139,2.659 -3.4105,4.6822 -2.1388,1.9654 -5.2024,3.1214 -3.0636,1.2139 -6.7053,1.2139 -2.3122,0 -4.2775,-0.34682 -0.34683,-0.0578 -1.8498,-0.52024 -1.4451,-0.40464 -3.1214,-0.86707 -1.6763,-0.46244 -3.1214,-0.86707 -1.4451,-0.40463 -1.6763,-0.40463 -0.98268,0 -1.5607,0.57805 -0.52024,0.57804 -0.80926,2.4278 l -1.4451,0 0,-18.035 1.4451,0 q 1.0405,5.5492 2.7168,8.4973 0.80926,1.3873 2.1388,2.6012 1.3873,1.1561 3.0636,2.081 1.7341,0.86706 3.6995,1.3873 1.9654,0.46244 3.9885,0.46244 2.4278,0 4.3353,-0.69365 1.9654,-0.69366 3.2949,-1.8498 1.3873,-1.2139 2.081,-2.7746 0.75145,-1.5607 0.75145,-3.2949 0,-1.9654 -1.0983,-3.9307 -1.0405,-1.9654 -3.5839,-3.8729 -2.4856,-1.5029 -5.896,-3.5261 -6.5319,-3.7573 -11.619,-7.2256 -2.8324,-2.2544 -4.3353,-4.9134 -1.4451,-2.7168 -1.4451,-6.0117 0,-2.7746 1.1561,-5.2602 1.1561,-2.5434 3.1792,-4.4509 2.081,-1.9075 4.9134,-3.0058 2.8324,-1.0983 6.1273,-1.0983 4.1619,0 8.8441,2.0232 1.0983,0.46244 1.8498,0.75146 0.75145,0.28902 1.2139,0.23122 1.0405,0 1.6763,-0.57804 0.63585,-0.57804 0.98268,-2.4278 l 1.4451,0 z"
                 id="path3355"
                 inkscape:connector-curvature="0" />
              <path
                 d="m 151.11,96.812 q 3.6995,0 6.8209,1.4451 3.1214,1.4451 5.3758,3.9307 2.3122,2.4278 3.5839,5.7804 1.3295,3.2948 1.3295,6.9943 0,4.3353 -1.4451,7.9192 -1.3873,3.5839 -3.8151,6.1851 -2.4278,2.5434 -5.607,3.9885 -3.1792,1.3873 -6.6475,1.3873 -3.6417,0 -6.7631,-1.5029 -3.0636,-1.5029 -5.318,-4.0463 -2.1966,-2.5434 -3.4683,-5.8961 -1.2139,-3.3527 -1.2139,-7.0522 0,-3.8151 1.3295,-7.2256 1.3295,-3.4683 3.6417,-6.1273 2.3122,-2.659 5.4336,-4.2197 3.1214,-1.5607 6.7631,-1.5607 z m -1.2139,2.5434 q -1.6763,0 -3.237,0.75146 -1.5607,0.69365 -2.7746,2.3122 -1.2139,1.5607 -1.9654,4.1041 -0.75146,2.5434 -0.75146,6.1851 0,3.7573 0.75146,7.2256 0.80926,3.4105 2.2544,6.0117 1.44514,2.6012 3.5261,4.1619 2.08096,1.5607 4.6244,1.5607 1.8497,0 3.4105,-0.69365 1.6185,-0.75146 2.7746,-2.37 1.1561,-1.61854 1.7919,-4.2197 0.69366,-2.659 0.69366,-6.4741 0,-3.8151 -0.75146,-7.1678 -0.75146,-3.4105 -2.1966,-5.896 -1.3873,-2.5434 -3.4683,-3.9885 -2.0232,-1.5029 -4.6822,-1.5029 z"
                 id="path3357"
                 inkscape:connector-curvature="0" />
              <path
                 d="m 183.89,104.33 q 6.1851,-7.5146 11.85,-7.5146 1.9654,0 3.6417,0.69365 1.6763,0.63585 2.8902,2.1966 1.2717,1.5029 1.9654,4.1041 0.69365,2.5434 0.69365,6.3585 l 0,15.145 q 0,2.3122 0.23122,3.6417 0.28902,1.3295 0.86706,2.0232 0.63585,0.63585 1.6763,0.80926 1.0405,0.17341 2.659,0.17341 l 0,1.3873 -17.515,0 0,-1.3873 0.69366,0 q 1.7341,0 2.7168,-0.28902 1.0405,-0.34683 1.5029,-1.0983 0.52024,-0.75145 0.63585,-2.0232 0.17342,-1.3295 0.17342,-3.237 l 0,-14.509 q 0,-4.9134 -1.2717,-7.0522 -1.2139,-2.1388 -4.2197,-2.1388 -4.6822,0 -9.1909,5.029 l 0,18.671 q 0,2.2544 0.11561,3.5839 0.17341,1.2717 0.75146,1.9654 0.57804,0.69365 1.7341,0.92487 1.1561,0.17341 3.1792,0.17341 l 0,1.3873 -17.573,0 0,-1.3873 0.75146,0 q 1.3873,0 2.2544,-0.28902 0.92487,-0.34683 1.4451,-1.0983 0.52024,-0.75145 0.69366,-2.0232 0.23122,-1.3295 0.23122,-3.237 l 0,-13.122 q 0,-3.8151 -0.11561,-5.896 -0.11561,-2.081 -0.46244,-3.0058 -0.28902,-0.98268 -0.86707,-1.1561 -0.52024,-0.17342 -1.3295,-0.17342 -0.57804,0 -1.2139,0.17342 -0.57805,0.1156 -1.3873,0.40463 l -0.57804,-1.3873 10.694,-4.3353 1.6763,0 0,7.5146 z"
                 id="path3359"
                 inkscape:connector-curvature="0" />
              <path
                 d="m 222.79,120.4 q -3.2948,-1.6185 -5.029,-4.3931 -1.7341,-2.8324 -1.7341,-6.3007 0,-2.659 1.0405,-4.9712 1.0983,-2.37 2.948,-4.1041 1.9076,-1.7919 4.5088,-2.7746 2.6012,-1.0405 5.6648,-1.0405 5.0868,0 8.7863,2.4856 l 7.5146,0 q 0.86706,0 1.3295,0.0578 0.46243,0 0.63585,0.05781 0.23121,0 0.23121,0.11561 0.0578,0.0578 0.11561,0.17341 0.17342,0.28902 0.17342,0.75146 0.0578,0.46243 0.0578,1.0983 0,0.80926 -0.40463,1.0405 -0.34683,0.17342 -2.1388,0.17342 l -4.6244,0 q 2.1966,2.8902 2.1966,7.1678 0,2.4278 -0.98268,4.6244 -0.98267,2.1388 -2.8324,3.8151 -1.7919,1.6185 -4.3931,2.6012 -2.6012,0.92487 -5.7804,0.92487 -1.3295,0 -2.7168,-0.17341 -1.3295,-0.17341 -2.659,-0.57804 -1.7341,1.5029 -2.3122,2.6012 -0.57804,1.0405 -0.57804,1.8497 0,0.63585 0.23121,1.0405 0.23122,0.40463 1.0983,0.69365 0.86707,0.28903 2.5434,0.46244 1.7341,0.17341 4.6822,0.23122 3.9885,0.11561 6.5319,0.28902 2.6012,0.17341 3.8151,0.28902 3.6417,0.46244 5.7226,2.659 2.1388,2.1388 2.1388,5.318 0,2.8902 -1.6763,5.3758 -1.6185,2.5434 -4.3931,4.3931 -2.7746,1.9076 -6.3585,3.0058 -3.5839,1.0983 -7.399,1.0983 -2.659,0 -5.4336,-0.57804 -2.7746,-0.57805 -5.029,-1.5607 -2.2544,-0.98268 -3.6995,-2.37 -1.3873,-1.3295 -1.3873,-2.8902 0,-0.86707 0.17341,-1.6185 0.23122,-0.75145 0.92488,-1.7919 0.75145,-1.0405 2.1388,-2.6012 1.4451,-1.5029 3.8151,-3.9885 -2.0232,-1.2139 -2.8324,-2.1388 -0.80927,-0.98267 -0.80927,-2.1966 0,-0.69365 0.17342,-1.4451 0.23122,-0.75146 0.86707,-1.6763 0.63584,-0.98268 1.8497,-2.2544 1.2717,-1.2717 3.2948,-2.948 z m -0.40463,12.948 q -3.6417,3.9885 -3.6417,6.8209 0,1.3295 1.0405,2.37 1.0983,1.0405 2.8902,1.7341 1.8498,0.75146 4.2775,1.1561 2.4278,0.40463 5.2024,0.40463 3.5261,0 6.0695,-0.69365 2.5434,-0.69365 4.2197,-1.8497 1.6763,-1.0983 2.4856,-2.4856 0.80927,-1.3295 0.80927,-2.7168 0,-0.98268 -0.40463,-1.6763 -0.40464,-0.69366 -1.5607,-1.1561 -1.0983,-0.46244 -3.0636,-0.69366 -1.9076,-0.23121 -4.9134,-0.34682 -8.6129,-0.17342 -13.411,-0.86707 z m 7.1678,-34.683 q -2.8324,0 -4.7978,2.3122 -1.9654,2.2544 -1.9654,6.9943 0,2.6012 0.52024,4.8556 0.52024,2.1966 1.5029,3.8151 1.0405,1.6185 2.4278,2.5434 1.4451,0.86707 3.2948,0.86707 2.948,0 4.8556,-2.1966 1.9075,-2.1966 1.9075,-6.9943 0,-2.6012 -0.52024,-4.7978 -0.52024,-2.2544 -1.5029,-3.8729 -0.98268,-1.6763 -2.4278,-2.6012 -1.4451,-0.92487 -3.2948,-0.92487 z"
                 id="path3361"
                 inkscape:connector-curvature="0" />
              <path
                 d="m 276.03,96.812 0,12.081 -1.3295,0 q -0.69365,-2.8324 -1.6763,-4.74 -0.92487,-1.9076 -2.081,-3.0058 -1.1561,-1.0983 -2.659,-1.5607 -1.4451,-0.46244 -3.1792,-0.46244 -1.3873,0 -2.4856,0.40463 -1.0983,0.40463 -1.9076,1.0405 -0.80926,0.63584 -1.2717,1.4451 -0.40463,0.80926 -0.40463,1.6763 0,1.0983 0.23122,2.0232 0.28902,0.92487 0.98267,1.7341 0.69366,0.80926 1.8497,1.6185 1.2139,0.80926 3.0636,1.7341 l 5.6648,2.7746 q 7.8614,3.8151 7.8614,10.116 0,2.4278 -1.0405,4.451 -0.98268,1.9654 -2.659,3.3527 -1.67632,1.3873 -3.8151,2.1388 -2.1388,0.80926 -4.3353,0.80926 -1.6763,0 -3.5261,-0.28902 -1.8497,-0.23122 -3.9307,-0.86707 -0.63584,-0.17341 -1.1561,-0.28902 -0.52024,-0.11561 -0.92488,-0.11561 -0.86706,0 -1.3873,0.98268 l -1.2717,0 0,-12.659 1.2717,0 q 0.52024,2.7168 1.6185,4.7978 1.0983,2.0232 2.5434,3.4105 1.4451,1.3295 3.1792,2.0232 1.7919,0.69366 3.6417,0.69366 1.3295,0 2.4278,-0.40464 1.0983,-0.40463 1.9076,-1.0983 0.80926,-0.75146 1.2717,-1.7341 0.46244,-0.98268 0.46244,-2.081 0,-1.3295 -0.40464,-2.37 -0.40463,-1.0983 -1.4451,-2.081 -1.0405,-1.0405 -2.8902,-2.1388 -1.7919,-1.0983 -4.6822,-2.5434 -2.8324,-1.3873 -4.6244,-2.6012 -1.7341,-1.2139 -2.7746,-2.4278 -0.98267,-1.2139 -1.3295,-2.5434 -0.34683,-1.3295 -0.34683,-3.0058 0,-2.1966 0.75146,-4.0463 0.80927,-1.9076 2.2544,-3.2949 1.44513,-1.3873 3.4105,-2.1388 1.9654,-0.80926 4.3353,-0.80926 0.75145,0 1.9075,0.23122 1.1561,0.23122 2.3122,0.52024 1.2139,0.28902 2.1966,0.52024 0.98268,0.23122 1.3295,0.23122 0.63584,0 0.92487,-0.23122 0.34682,-0.28902 0.80926,-1.2717 l 1.3295,0 z"
                 id="path3363"
                 inkscape:connector-curvature="0" />
              <path
                 d="m 293.77,103.98 q 5.2602,-7.1678 11.098,-7.1678 2.659,0 5.1446,1.2139 2.4856,1.2139 4.3353,3.4683 1.9076,2.2544 3.0058,5.4914 1.1561,3.237 1.1561,7.2834 0,4.3353 -1.5029,8.0348 -1.5029,3.6417 -4.0463,6.3585 -2.5434,2.7168 -5.8382,4.2775 -3.2949,1.5029 -6.9365,1.5029 -6.0695,0 -12.833,-4.5087 l 0,-36.764 q 0,-3.6417 -0.17342,-5.607 -0.11561,-2.0232 -0.40463,-2.948 -0.28902,-0.92487 -0.86706,-1.0983 -0.52024,-0.17341 -1.2717,-0.17341 -1.2139,0 -2.7168,0.63585 l -0.52024,-1.3873 10.636,-4.3353 1.7341,0 0,25.723 z m 0,2.4856 0,21.214 q 4.0463,3.9307 8.3816,3.9307 1.7341,0 3.4683,-0.98268 1.7341,-0.98268 3.0636,-2.8902 1.3873,-1.9076 2.2544,-4.74 0.86707,-2.8324 0.86707,-6.5319 0,-3.3526 -0.86707,-6.0117 -0.80926,-2.659 -2.2544,-4.4509 -1.3873,-1.7919 -3.1792,-2.7168 -1.7919,-0.98268 -3.6995,-0.98268 -0.92487,0 -1.7919,0.17341 -0.86707,0.17342 -1.8498,0.63585 -0.92487,0.40463 -2.0232,1.2717 -1.0405,0.80926 -2.37,2.081 z"
                 id="path3365"
                 inkscape:connector-curvature="0" />
              <path
                 d="m 334.18,96.812 0,7.977 q 4.5088,-7.977 9.1909,-7.977 1.0405,0 1.9076,0.34683 0.92487,0.34683 1.5607,0.98268 0.69365,0.57804 1.0405,1.3873 0.40463,0.75146 0.40463,1.6185 0,1.5029 -1.0405,2.5434 -0.98268,1.0405 -2.37,1.0405 -0.63584,0 -1.5029,-0.40463 -0.80926,-0.40464 -1.6185,-0.92488 -0.75145,-0.52024 -1.4451,-0.92487 -0.63585,-0.40463 -0.98267,-0.40463 -1.0405,0 -2.4278,1.6763 -1.3873,1.6763 -2.7168,4.2775 l 0,17.052 q 0,1.5607 0.17341,2.8324 0.23122,1.2717 0.86707,2.1966 0.63585,0.86707 1.8497,1.3873 1.2717,0.46243 3.3527,0.46243 l 0,1.3873 -18.208,0 0,-1.3873 q 1.7341,0 2.7746,-0.23122 1.0983,-0.23121 1.7341,-0.92487 0.63585,-0.69365 0.86707,-1.9654 0.23122,-1.3295 0.23122,-3.4683 l 0,-13.757 q 0,-3.1214 -0.11561,-4.9134 -0.0578,-1.7919 -0.17342,-2.4278 -0.57804,-2.3122 -2.6012,-2.3122 -0.63585,0 -1.2717,0.17342 -0.63584,0.1156 -1.4451,0.40463 l -0.34682,-1.3873 10.694,-4.3353 1.6185,0 z"
                 id="path3367"
                 inkscape:connector-curvature="0" />
              <path
                 d="m 367.53,96.812 q 3.6995,0 6.8209,1.4451 3.1214,1.4451 5.3758,3.9307 2.3122,2.4278 3.5839,5.7804 1.3295,3.2948 1.3295,6.9943 0,4.3353 -1.4451,7.9192 -1.3873,3.5839 -3.8151,6.1851 -2.4278,2.5434 -5.607,3.9885 -3.1792,1.3873 -6.6475,1.3873 -3.6417,0 -6.7631,-1.5029 -3.0636,-1.5029 -5.318,-4.0463 -2.1966,-2.5434 -3.4683,-5.8961 -1.2139,-3.3527 -1.2139,-7.0522 0,-3.8151 1.3295,-7.2256 1.3295,-3.4683 3.6417,-6.1273 2.3122,-2.659 5.4336,-4.2197 3.1214,-1.5607 6.7631,-1.5607 z m -1.2139,2.5434 q -1.6763,0 -3.237,0.75146 -1.5607,0.69365 -2.7746,2.3122 -1.2139,1.5607 -1.9654,4.1041 -0.75146,2.5434 -0.75146,6.1851 0,3.7573 0.75146,7.2256 0.80926,3.4105 2.2544,6.0117 1.44514,2.6012 3.5261,4.1619 2.08096,1.5607 4.6244,1.5607 1.8498,0 3.4105,-0.69365 1.6185,-0.75146 2.7746,-2.37 1.1561,-1.61854 1.7919,-4.2197 0.69365,-2.659 0.69365,-6.4741 0,-3.8151 -0.75145,-7.1678 -0.75146,-3.4105 -2.1966,-5.896 -1.3873,-2.5434 -3.4683,-3.9885 -2.0232,-1.5029 -4.6822,-1.5029 z"
                 id="path3369"
                 inkscape:connector-curvature="0" />
            </g>
          </g>
        </g>
      </g>
    </g>
  </g>
</svg>
